<svg width="90" height="14" viewBox="0 0 90 14" fill="none" xmlns="http://www.w3.org/2000/svg">
<path d="M12.8167 5.59688C12.7765 5.46715 12.6695 5.37261 12.5408 5.35302L8.92407 4.80207L7.30658 1.36647C7.24902 1.24417 7.13019 1.16675 7.0001 1.16675C6.86999 1.16675 6.75118 1.24417 6.6936 1.36647L5.07604 4.80207L1.45939 5.35302C1.33067 5.37261 1.22369 5.46715 1.18349 5.59686C1.14328 5.72659 1.17682 5.86898 1.26999 5.96417L3.88696 8.63842L3.26927 12.4145C3.24725 12.549 3.29998 12.6848 3.40523 12.765C3.46477 12.8103 3.5353 12.8334 3.60616 12.8334C3.66058 12.8334 3.71517 12.8198 3.76517 12.7923L7.00008 11.0094L10.2349 12.7922C10.35 12.8557 10.4896 12.8451 10.5948 12.765C10.7001 12.6848 10.7528 12.5489 10.7308 12.4145L10.1129 8.63842L12.7302 5.96415C12.8233 5.86898 12.8569 5.72659 12.8167 5.59688Z" fill="#FFA800"/>
<path d="M31.8167 5.59688C31.7765 5.46715 31.6695 5.37261 31.5408 5.35302L27.9241 4.80207L26.3066 1.36647C26.249 1.24417 26.1302 1.16675 26.0001 1.16675C25.87 1.16675 25.7512 1.24417 25.6936 1.36647L24.076 4.80207L20.4594 5.35302C20.3307 5.37261 20.2237 5.46715 20.1835 5.59686C20.1433 5.72659 20.1768 5.86898 20.27 5.96417L22.887 8.63842L22.2693 12.4145C22.2473 12.549 22.3 12.6848 22.4052 12.765C22.4648 12.8103 22.5353 12.8334 22.6062 12.8334C22.6606 12.8334 22.7152 12.8198 22.7652 12.7923L26.0001 11.0094L29.2349 12.7922C29.35 12.8557 29.4896 12.8451 29.5948 12.765C29.7001 12.6848 29.7528 12.5489 29.7308 12.4145L29.1129 8.63842L31.7302 5.96415C31.8233 5.86898 31.8569 5.72659 31.8167 5.59688Z" fill="#FFA800"/>
<path d="M50.8167 5.59688C50.7765 5.46715 50.6695 5.37261 50.5408 5.35302L46.9241 4.80207L45.3066 1.36647C45.249 1.24417 45.1302 1.16675 45.0001 1.16675C44.87 1.16675 44.7512 1.24417 44.6936 1.36647L43.076 4.80207L39.4594 5.35302C39.3307 5.37261 39.2237 5.46715 39.1835 5.59686C39.1433 5.72659 39.1768 5.86898 39.27 5.96417L41.887 8.63842L41.2693 12.4145C41.2473 12.549 41.3 12.6848 41.4052 12.765C41.4648 12.8103 41.5353 12.8334 41.6062 12.8334C41.6606 12.8334 41.7152 12.8198 41.7652 12.7923L45.0001 11.0094L48.2349 12.7922C48.35 12.8557 48.4896 12.8451 48.5948 12.765C48.7001 12.6848 48.7528 12.5489 48.7308 12.4145L48.1129 8.63842L50.7302 5.96415C50.8233 5.86898 50.8569 5.72659 50.8167 5.59688Z" fill="#FFA800"/>
<path d="M69.8167 5.59688C69.7765 5.46715 69.6695 5.37261 69.5408 5.35302L65.9241 4.80207L64.3066 1.36647C64.249 1.24417 64.1302 1.16675 64.0001 1.16675C63.87 1.16675 63.7512 1.24417 63.6936 1.36647L62.076 4.80207L58.4594 5.35302C58.3307 5.37261 58.2237 5.46715 58.1835 5.59686C58.1433 5.72659 58.1768 5.86898 58.27 5.96417L60.887 8.63842L60.2693 12.4145C60.2473 12.549 60.3 12.6848 60.4052 12.765C60.4648 12.8103 60.5353 12.8334 60.6062 12.8334C60.6606 12.8334 60.7152 12.8198 60.7652 12.7923L64.0001 11.0094L67.2349 12.7922C67.35 12.8557 67.4896 12.8451 67.5948 12.765C67.7001 12.6848 67.7528 12.5489 67.7308 12.4145L67.1129 8.63842L69.7302 5.96415C69.8233 5.86898 69.8569 5.72659 69.8167 5.59688Z" fill="#FFA800"/>
<path d="M88.8167 5.59688C88.7765 5.46715 88.6695 5.37261 88.5408 5.35302L84.9241 4.80207L83.3066 1.36647C83.249 1.24417 83.1302 1.16675 83.0001 1.16675C82.87 1.16675 82.7512 1.24417 82.6936 1.36647L81.076 4.80207L77.4594 5.35302C77.3307 5.37261 77.2237 5.46715 77.1835 5.59686C77.1433 5.72659 77.1768 5.86898 77.27 5.96417L79.887 8.63842L79.2693 12.4145C79.2473 12.549 79.3 12.6848 79.4052 12.765C79.4648 12.8103 79.5353 12.8334 79.6062 12.8334C79.6606 12.8334 79.7152 12.8198 79.7652 12.7923L83.0001 11.0094L86.2349 12.7922C86.35 12.8557 86.4896 12.8451 86.5948 12.765C86.7001 12.6848 86.7528 12.5489 86.7308 12.4145L86.1129 8.63842L88.7302 5.96415C88.8233 5.86898 88.8569 5.72659 88.8167 5.59688Z" fill="#FFA800"/>
</svg>
